<?xml version="1.0" encoding="UTF-8" standalone="no"?>
<!DOCTYPE svg PUBLIC "-//W3C//DTD SVG 1.1//EN"
 "http://www.w3.org/Graphics/SVG/1.1/DTD/svg11.dtd">
<!-- Generated by graphviz version 2.42.4 (0)
 -->
<!-- Title: RLU Pages: 1 -->
<svg width="1447pt" height="348pt"
 viewBox="0.00 0.00 1446.52 348.37" xmlns="http://www.w3.org/2000/svg" xmlns:xlink="http://www.w3.org/1999/xlink">
<g id="graph0" class="graph" transform="scale(1 1) rotate(0) translate(4 344.37)">
<title>RLU</title>
<polygon fill="white" stroke="transparent" points="-4,4 -4,-344.37 1442.52,-344.37 1442.52,4 -4,4"/>
<!-- P0 -->
<g id="node1" class="node">
<title>P0</title>
<polygon fill="none" stroke="black" points="131,-340.37 0,-340.37 0,-287.37 131,-287.37 131,-340.37"/>
<text text-anchor="middle" x="65.5" y="-325.17" font-family="Helvetica,sans-Serif" font-size="14.00">P0</text>
<text text-anchor="middle" x="65.5" y="-310.17" font-family="Helvetica,sans-Serif" font-size="14.00">Cartan variables</text>
<text text-anchor="middle" x="65.5" y="-295.17" font-family="Helvetica,sans-Serif" font-size="14.00">and symmetries</text>
</g>
<!-- P1 -->
<g id="node2" class="node">
<title>P1</title>
<polygon fill="none" stroke="black" points="288,-332.87 167,-332.87 167,-294.87 288,-294.87 288,-332.87"/>
<text text-anchor="middle" x="227.5" y="-317.67" font-family="Helvetica,sans-Serif" font-size="14.00">P1</text>
<text text-anchor="middle" x="227.5" y="-302.67" font-family="Helvetica,sans-Serif" font-size="14.00">Finite regulator</text>
</g>
<!-- P0&#45;&gt;P1 -->
<g id="edge1" class="edge">
<title>P0&#45;&gt;P1</title>
<path fill="none" stroke="black" d="M131.12,-313.87C139.5,-313.87 148.12,-313.87 156.59,-313.87"/>
<polygon fill="black" stroke="black" points="156.82,-317.37 166.82,-313.87 156.82,-310.37 156.82,-317.37"/>
</g>
<!-- P2 -->
<g id="node3" class="node">
<title>P2</title>
<polygon fill="none" stroke="black" points="460,-332.87 324,-332.87 324,-294.87 460,-294.87 460,-332.87"/>
<text text-anchor="middle" x="392" y="-317.67" font-family="Helvetica,sans-Serif" font-size="14.00">P2</text>
<text text-anchor="middle" x="392" y="-302.67" font-family="Helvetica,sans-Serif" font-size="14.00">Classical GR limit</text>
</g>
<!-- P1&#45;&gt;P2 -->
<g id="edge2" class="edge">
<title>P1&#45;&gt;P2</title>
<path fill="none" stroke="black" d="M288.09,-313.87C296.42,-313.87 305.08,-313.87 313.68,-313.87"/>
<polygon fill="black" stroke="black" points="313.73,-317.37 323.73,-313.87 313.73,-310.37 313.73,-317.37"/>
</g>
<!-- P3 -->
<g id="node4" class="node">
<title>P3</title>
<polygon fill="none" stroke="black" points="668.26,-340.37 554.26,-340.37 554.26,-287.37 668.26,-287.37 668.26,-340.37"/>
<text text-anchor="middle" x="611.26" y="-325.17" font-family="Helvetica,sans-Serif" font-size="14.00">P3</text>
<text text-anchor="middle" x="611.26" y="-310.17" font-family="Helvetica,sans-Serif" font-size="14.00">Free 2&#45;helicity</text>
<text text-anchor="middle" x="611.26" y="-295.17" font-family="Helvetica,sans-Serif" font-size="14.00">quantum limit</text>
</g>
<!-- P2&#45;&gt;P3 -->
<g id="edge3" class="edge">
<title>P2&#45;&gt;P3</title>
<path fill="none" stroke="black" d="M460.25,-313.87C486.77,-313.87 517.15,-313.87 543.6,-313.87"/>
<polygon fill="black" stroke="black" points="543.91,-317.37 553.91,-313.87 543.91,-310.37 543.91,-317.37"/>
</g>
<!-- P4 -->
<g id="node5" class="node">
<title>P4</title>
<polygon fill="none" stroke="black" points="923.52,-197.37 762.52,-197.37 762.52,-144.37 923.52,-144.37 923.52,-197.37"/>
<text text-anchor="middle" x="843.02" y="-182.17" font-family="Helvetica,sans-Serif" font-size="14.00">P4</text>
<text text-anchor="middle" x="843.02" y="-167.17" font-family="Helvetica,sans-Serif" font-size="14.00">Interacting universal</text>
<text text-anchor="middle" x="843.02" y="-152.17" font-family="Helvetica,sans-Serif" font-size="14.00">critical continuum</text>
</g>
<!-- P3&#45;&gt;P4 -->
<g id="edge4" class="edge">
<title>P3&#45;&gt;P4</title>
<path fill="none" stroke="black" d="M668.41,-302.13C687.62,-296.72 708.74,-289.16 726.52,-278.87 759.82,-259.6 791.28,-229.06 812.93,-205.36"/>
<polygon fill="black" stroke="black" points="815.81,-207.4 819.88,-197.62 810.6,-202.72 815.81,-207.4"/>
</g>
<!-- P5 -->
<g id="node6" class="node">
<title>P5</title>
<polygon fill="none" stroke="black" points="1079.52,-197.37 959.52,-197.37 959.52,-144.37 1079.52,-144.37 1079.52,-197.37"/>
<text text-anchor="middle" x="1019.52" y="-182.17" font-family="Helvetica,sans-Serif" font-size="14.00">P5</text>
<text text-anchor="middle" x="1019.52" y="-167.17" font-family="Helvetica,sans-Serif" font-size="14.00">Chiral matter</text>
<text text-anchor="middle" x="1019.52" y="-152.17" font-family="Helvetica,sans-Serif" font-size="14.00">and unification</text>
</g>
<!-- P4&#45;&gt;P5 -->
<g id="edge5" class="edge">
<title>P4&#45;&gt;P5</title>
<path fill="none" stroke="black" d="M923.61,-170.87C932.17,-170.87 940.83,-170.87 949.26,-170.87"/>
<polygon fill="black" stroke="black" points="949.4,-174.37 959.4,-170.87 949.4,-167.37 949.4,-174.37"/>
</g>
<!-- P6 -->
<g id="node7" class="node">
<title>P6</title>
<polygon fill="none" stroke="black" points="1263.52,-197.37 1115.52,-197.37 1115.52,-144.37 1263.52,-144.37 1263.52,-197.37"/>
<text text-anchor="middle" x="1189.52" y="-182.17" font-family="Helvetica,sans-Serif" font-size="14.00">P6</text>
<text text-anchor="middle" x="1189.52" y="-167.17" font-family="Helvetica,sans-Serif" font-size="14.00">Unique beyond&#45;GR</text>
<text text-anchor="middle" x="1189.52" y="-152.17" font-family="Helvetica,sans-Serif" font-size="14.00">prediction</text>
</g>
<!-- P5&#45;&gt;P6 -->
<g id="edge6" class="edge">
<title>P5&#45;&gt;P6</title>
<path fill="none" stroke="black" d="M1079.75,-170.87C1088.03,-170.87 1096.67,-170.87 1105.29,-170.87"/>
<polygon fill="black" stroke="black" points="1105.39,-174.37 1115.39,-170.87 1105.39,-167.37 1105.39,-174.37"/>
</g>
<!-- P7 -->
<g id="node8" class="node">
<title>P7</title>
<polygon fill="none" stroke="black" points="1438.52,-197.37 1299.52,-197.37 1299.52,-144.37 1438.52,-144.37 1438.52,-197.37"/>
<text text-anchor="middle" x="1369.02" y="-182.17" font-family="Helvetica,sans-Serif" font-size="14.00">P7</text>
<text text-anchor="middle" x="1369.02" y="-167.17" font-family="Helvetica,sans-Serif" font-size="14.00">Prospective</text>
<text text-anchor="middle" x="1369.02" y="-152.17" font-family="Helvetica,sans-Serif" font-size="14.00">experimental test</text>
</g>
<!-- P6&#45;&gt;P7 -->
<g id="edge7" class="edge">
<title>P6&#45;&gt;P7</title>
<path fill="none" stroke="black" d="M1263.74,-170.87C1272.09,-170.87 1280.63,-170.87 1289.05,-170.87"/>
<polygon fill="black" stroke="black" points="1289.24,-174.37 1299.24,-170.87 1289.24,-167.37 1289.24,-174.37"/>
</g>
<!-- X1 -->
<g id="node9" class="node">
<title>X1</title>
<ellipse fill="none" stroke="black" cx="611.26" cy="-242.87" rx="86.03" ry="26.74"/>
<text text-anchor="middle" x="611.26" y="-246.67" font-family="Helvetica,sans-Serif" font-size="14.00">Required at P4:</text>
<text text-anchor="middle" x="611.26" y="-231.67" font-family="Helvetica,sans-Serif" font-size="14.00">single metric</text>
</g>
<!-- X1&#45;&gt;P4 -->
<g id="edge8" class="edge">
<title>X1&#45;&gt;P4</title>
<path fill="none" stroke="black" d="M672.62,-223.95C697.02,-216.31 725.68,-207.33 752.42,-198.95"/>
<polygon fill="black" stroke="black" points="753.68,-202.22 762.17,-195.89 751.58,-195.54 753.68,-202.22"/>
</g>
<!-- X2 -->
<g id="node10" class="node">
<title>X2</title>
<ellipse fill="none" stroke="black" cx="611.26" cy="-170.87" rx="103.48" ry="26.74"/>
<text text-anchor="middle" x="611.26" y="-174.67" font-family="Helvetica,sans-Serif" font-size="14.00">Required at P4:</text>
<text text-anchor="middle" x="611.26" y="-159.67" font-family="Helvetica,sans-Serif" font-size="14.00">torsion decoupling</text>
</g>
<!-- X2&#45;&gt;P4 -->
<g id="edge9" class="edge">
<title>X2&#45;&gt;P4</title>
<path fill="none" stroke="black" d="M714.71,-170.87C727.14,-170.87 739.77,-170.87 752.01,-170.87"/>
<polygon fill="black" stroke="black" points="752.18,-174.37 762.18,-170.87 752.18,-167.37 752.18,-174.37"/>
</g>
<!-- X3 -->
<g id="node11" class="node">
<title>X3</title>
<ellipse fill="none" stroke="black" cx="611.26" cy="-98.87" rx="115.02" ry="26.74"/>
<text text-anchor="middle" x="611.26" y="-102.67" font-family="Helvetica,sans-Serif" font-size="14.00">Required at P4:</text>
<text text-anchor="middle" x="611.26" y="-87.67" font-family="Helvetica,sans-Serif" font-size="14.00">no physical k^4 pole</text>
</g>
<!-- X3&#45;&gt;P4 -->
<g id="edge10" class="edge">
<title>X3&#45;&gt;P4</title>
<path fill="none" stroke="black" d="M680.88,-120.37C703.43,-127.44 728.83,-135.4 752.68,-142.87"/>
<polygon fill="black" stroke="black" points="751.85,-146.28 762.44,-145.93 753.94,-139.6 751.85,-146.28"/>
</g>
<!-- X4 -->
<g id="node12" class="node">
<title>X4</title>
<ellipse fill="none" stroke="black" cx="611.26" cy="-26.87" rx="110.12" ry="26.74"/>
<text text-anchor="middle" x="611.26" y="-30.67" font-family="Helvetica,sans-Serif" font-size="14.00">Required at P4:</text>
<text text-anchor="middle" x="611.26" y="-15.67" font-family="Helvetica,sans-Serif" font-size="14.00">Lorentzian positivity</text>
</g>
<!-- X4&#45;&gt;P4 -->
<g id="edge11" class="edge">
<title>X4&#45;&gt;P4</title>
<path fill="none" stroke="black" d="M689.27,-45.92C702.13,-50.55 715.02,-56.16 726.52,-62.87 759.74,-82.27 791.21,-112.8 812.88,-136.46"/>
<polygon fill="black" stroke="black" points="810.55,-139.1 819.84,-144.19 815.75,-134.42 810.55,-139.1"/>
</g>
</g>
</svg>
